<?xml version="1.0" encoding="UTF-8" standalone="no"?>

<svg width="100%" height="100%" viewBox="0 0 545 151" version="1.1" xmlns="http://www.w3.org/2000/svg" xmlns:xlink="http://www.w3.org/1999/xlink" xml:space="preserve" xmlns:serif="http://www.serif.com/" style="fill-rule:evenodd;clip-rule:evenodd;stroke-linejoin:round;stroke-miterlimit:2;">
<defs><mask id="fl-counters" maskUnits="userSpaceOnUse" x="0" y="0" width="545" height="151">
  <rect x="0" y="0" width="545" height="151" fill="white"></rect>
  <path d="M518.039,84.569C518.865,94.638 518.134,107.138 505.678,114.812C502.905,116.521 489.017,122.394 477.427,109.566C475.43,107.356 471.064,102.355 470.536,89.499C470.09,78.63 475.911,71.164 476.927,69.861C480.1,65.79 490.287,57.657 503.601,63.267C504.391,63.6 508.426,65.3 512.063,69.85C517.409,76.537 518.036,84.554 518.039,84.569Z" fill="black"></path>
  <path d="M111.5,110.053C109.894,110.011 106.477,110.279 100.778,107.057C99.089,106.101 95.421,102.263 94.372,99.556C93.268,96.708 89.519,87.816 95.363,77.42C96.821,74.826 100.318,71.552 103.391,70.25C120.13,63.164 135.751,80.421 127.597,99.542C125.945,103.416 123.101,105.481 122.727,105.787C117.52,110.053 112.703,109.968 111.5,110.053Z" fill="black"></path>
  <path d="M423.486,90.06C428.997,89.837 428.981,89.907 434.506,89.752C437.586,89.665 437.064,91.289 436.963,95.523C436.652,108.562 426.394,115.79 420.424,117.221C406.608,120.532 397.823,112.354 398.423,103.496C399.344,89.872 416.131,90.285 423.486,90.06Z" fill="black"></path>
</mask></defs>
    <g mask="url(#fl-counters)" transform="matrix(1,0,0,1,-2,-2)">
        <path d="M528.044,89.5C527.912,92.958 528.509,106.737 517.567,117.568C514.288,120.814 506.861,125.49 498.522,125.853C485.646,126.414 478.881,121.495 474.383,116.616C473.203,115.336 472.927,114.655 472.474,114.591C471.537,114.459 471.307,115.281 471.276,115.392C471.123,115.938 471.497,122.891 470.839,123.717C469.991,124.78 469.063,124.573 465.501,124.605C463.581,124.622 461.64,124.89 461.513,122.499C461.378,119.949 461.452,38.78 461.459,31.5C461.462,28.447 460.948,25.915 463.525,25.827C469.875,25.609 470.23,25.953 470.64,26.35C471.506,27.189 471.075,27.423 471.233,46.502C471.344,59.945 471.108,62.116 470.962,63.465C470.882,64.203 470.64,64.375 471.291,64.724C471.609,64.895 471.935,65.138 472.295,65.125C472.613,65.113 473.111,62.994 476.79,59.842C488.628,49.699 509.661,51.135 520.256,64.684C521.816,66.679 527.337,75.029 527.863,85.472C527.965,87.497 527.948,87.473 528.044,89.5Z" style="fill:rgb(1,1,1);"></path>
        <path d="M164.5,53.91C171.108,53.912 172.994,53.514 173.251,55.538C173.376,56.527 173.241,88.622 173.229,91.499C173.213,95.256 172.678,107.487 184.479,109.632C187.656,110.209 194.705,109.927 198.578,104.561C203.3,98.018 202.62,94.214 202.679,71.501C202.72,55.425 202.06,54.931 203.347,54.288C204.249,53.839 204.306,53.977 216.501,53.915C218.983,53.902 219.624,54.012 219.613,56.499C219.594,60.947 218.885,62.884 219.598,63.372C220.408,63.927 220.939,63.151 221.004,63.056C221.852,61.816 221.459,61.515 224.073,59.05C226.485,56.776 230.746,52.248 242.481,52.822C262.541,53.805 267.343,71.15 267.296,81.5C267.223,98.021 267.487,122.479 267.18,123.385C266.779,124.567 265.783,124.571 256.5,124.6C253.755,124.608 250.717,124.81 250.209,123.681C249.759,122.681 249.809,122.6 249.829,88.5C249.83,86.913 251.385,69.269 236.494,68.638C229.641,68.348 225.251,72.504 224.522,73.518C219.452,80.565 220.191,84.346 220.154,104.499C220.122,122.443 220.312,123.119 219.818,123.717C219.038,124.662 218.829,124.559 207.5,124.579C204.26,124.585 203.243,124.741 203.154,121.514C203.148,121.273 203.102,119.628 203.19,118.507C203.382,116.065 203.578,116.007 203.276,115.629C203.153,115.476 202.046,115.418 201.692,115.707C201.468,115.89 199.484,121.655 190.507,124.52C178.567,128.33 165.942,123.002 160.97,115.186C155.85,107.137 156.075,100.277 155.918,95.493C155.787,91.505 156.068,79.553 155.795,58.494C155.789,57.983 155.682,55.131 156.405,54.397C157.032,53.761 160.892,53.907 164.5,53.91Z"></path>
        <path d="M74.966,82.573C75.646,79.523 76.769,72.298 83.689,64.671C85.069,63.15 93.211,54.177 106.539,52.974C120.407,51.722 129.222,57.224 129.558,57.391C131.604,58.405 136.101,61.671 139.748,66.314C149.082,78.196 148.136,93.978 145.45,101.483C140.45,115.459 131.191,121.592 120.551,124.682C117.152,125.669 109.917,126.191 105.502,125.486C97.228,124.165 89.83,121.149 83.746,114.287C82.851,113.277 77.857,107.644 75.762,99.426C73.767,91.597 74.337,88.136 74.966,82.573Z"></path>
        <path d="M435.774,113.994C433.484,116.685 432.095,120.021 424.633,123.79C419.015,126.627 401.226,128.466 392.289,116.649C388.344,111.431 382.909,89.599 405.616,83.932C407.864,83.371 413.689,81.918 434.498,81.853C436.811,81.846 437.179,81.216 436.832,77.463C435.249,60.329 417.05,58.815 408.608,62.736C398.413,67.472 399.687,74.95 397.692,75.821C396.547,76.321 390.553,76.294 389.698,75.323C389.146,74.696 389.345,73.629 389.373,73.482C390.847,65.603 395.032,61.656 395.857,60.878C398.256,58.615 404.448,53.072 419.503,53.251C425.546,53.323 434.263,55.613 439.356,60.646C448.262,69.447 446.799,81.86 446.823,92.499C446.884,120.15 447.087,120.138 446.918,122.535C446.765,124.718 445.754,124.797 440.496,124.632C436.8,124.515 437.213,123.233 437.077,119.527C437.004,117.531 437.012,117.548 437.089,115.548C437.101,115.242 437.221,114.909 437.095,114.63C437.047,114.523 437.004,114.586 435.774,113.994Z" style="fill:rgb(1,1,1);"></path>
        <path d="M69.497,53.928C69.729,53.932 72.388,53.985 72.388,53.985C72.534,54.041 73.442,54.388 73.662,55.469C73.67,55.512 73.811,66.653 73.533,67.512C73.198,68.553 71.696,68.635 71.511,68.646C67.942,68.841 55.949,68.088 54.773,68.873C53.887,69.464 54.124,69.719 54.072,82.497C53.927,117.816 53.948,118.383 54.067,121.501C54.202,125.055 52.183,124.625 48.5,124.652C38.359,124.726 38.342,124.761 37.513,124.469C36.076,123.962 36.569,122.331 36.421,114.501C36.246,105.267 36.64,70.792 36.166,69.641C35.642,68.368 33.533,68.676 25.498,68.614C21.694,68.585 22.353,67.061 22.317,64.503C22.205,56.5 21.973,54.631 23.304,54.122C23.994,53.859 24.551,53.876 32.496,53.92C35.361,53.936 36.431,54.374 36.547,51.502C36.832,44.484 36.436,29.827 54.539,25.668C55.867,25.363 61.906,23.976 71.551,25.095C75.205,25.518 74.487,26.835 74.491,30.5C74.498,37.841 74.561,37.843 74.366,38.448C73.728,40.43 68.749,38.489 62.522,39.625C58.281,40.398 54.816,42.336 54.133,50.46C53.805,54.35 55.416,53.854 58.496,53.882C59.376,53.89 59.366,53.882 69.497,53.928Z"></path>
        <path d="M303.044,37.503C302.927,43.517 303.098,43.496 303.069,49.496C303.058,51.865 302.257,53.807 305.494,53.852C307.58,53.881 320.04,53.8 320.383,53.938C322.038,54.601 321.689,55.526 321.71,63.5C321.72,67.236 322.232,68.646 318.503,68.681C304.965,68.807 303.261,67.605 303.048,70.444C302.907,72.33 303.169,86.738 302.964,97.499C302.766,107.875 306.78,110.122 317.508,109.686C319.683,109.597 319.687,109.474 320.458,109.655C322.196,110.064 321.462,110.858 321.471,121.5C321.473,124.659 320.421,124.557 316.54,124.867C315.892,124.919 296.376,126.992 289.486,115.509C284.875,107.824 285.938,104.55 285.745,79.498C285.692,72.641 286.112,69.296 284.396,68.816C283.358,68.526 274.979,69.062 273.582,68.336C272.667,67.861 272.606,66.659 272.597,66.492C272.594,66.421 272.7,57.302 272.709,56.503C272.748,53.149 274.226,53.869 279.501,53.86C281.805,53.856 284.569,54.051 285.285,53.294C285.894,52.65 285.752,52.513 285.738,37.501C285.738,37.457 285.585,34.834 286.009,34.214C286.878,32.943 287.464,33.265 292.497,33.204C302.119,33.087 302.138,33.382 302.41,33.611C302.742,33.888 302.929,34.025 303.044,37.503Z" style="fill:rgb(0,0,1);"></path>
        <path d="M366.055,115.499C366.002,113.893 365.916,37.541 366.008,28.488C366.025,26.723 365.862,26.318 367.55,25.84C367.931,25.733 367.921,25.805 372.492,25.846C372.839,25.849 375.158,25.511 375.516,27.497C375.634,28.15 375.58,45.9 375.575,47.5C375.41,101.809 375.745,118.47 375.538,122.503C375.439,124.434 374.827,124.793 368.494,124.625C365.464,124.545 366.057,123.164 366.055,115.499Z" style="fill:rgb(1,1,1);"></path>
        </g>
</svg>